# xmcd
#
# Track frame offsets:
#        150
#        23352
#        42837
#        63315
#        80417
#        98562
#        117202
#        142537
#        160752
#        179745
#        205937
#
# Disc length: 3039 seconds
#
# Revision: 0
# Processed by: cddbd v1.5PL3 Copyright (c) Steve Scherf et al.
# Submitted via: ExactAudioCopy v0.95a4
#
DISCID=7f0bdd0b
DTITLE=GIRL U NEED - Girl U Need
DYEAR=1996
DGENRE=Hard Rock
TTITLE0=Balance
TTITLE1=Give it Up
TTITLE2=Without You
TTITLE3=Natural Things
TTITLE4=Glass
TTITLE5=Make You Groove
TTITLE6=Down to the Mirror
TTITLE7=Get Up
TTITLE8=Love Suicide
TTITLE9=Spread Wings
TTITLE10=Dead or Alive
EXTD=
EXTT0=
EXTT1=
EXTT2=
EXTT3=
EXTT4=
EXTT5=
EXTT6=
EXTT7=
EXTT8=
EXTT9=
EXTT10=
PLAYORDER=
